PathFileType	4	(X/Y/Z)	pose_F01_0-89.trc
DataRate	CameraRate	NumFrames	NumMarkers	Units	OrigDataRate	OrigDataStartFrame	OrigNumFrames
30	30	8	21	m	30	44	89
Frame#	Time	CHip			RHip			RKnee			RAnkle			RBigToe			RSmallToe			RHeel			LHip			LKnee			LAnkle			LBigToe			LSmallToe			LHeel			Neck			Nose			RShoulder			RElbow			RWrist			LShoulder			LElbow			LWrist			
		X1	Y1	Z1	X2	Y2	Z2	X3	Y3	Z3	X4	Y4	Z4	X5	Y5	Z5	X6	Y6	Z6	X7	Y7	Z7	X8	Y8	Z8	X9	Y9	Z9	X10	Y10	Z10	X11	Y11	Z11	X12	Y12	Z12	X13	Y13	Z13	X14	Y14	Z14	X15	Y15	Z15	X16	Y16	Z16	X17	Y17	Z17	X18	Y18	Z18	X19	Y19	Z19	X20	Y20	Z20	X21	Y21	Z21	
44	1.4666666666666666	-0.22676900226127783	1.8370964118831994	-0.5248403087584635	-0.24114424204139032	1.8323154409440423	-0.46441584849704814	-0.25100856607464167	1.7176396051579685	-0.49164072393447206	-0.23617752880919282	1.6136640673274332	-0.4413703695802904							-0.22638552464021186	1.6123964979942877	-0.4246374230687787	-0.21306251494191758	1.8421727818416174	-0.591760379905486	-0.22263821847565096	1.7269866938745568	-0.6221253517117353	-0.21108696548408898	1.6263788086478574	-0.5335209735506063	-0.21910110380702325	1.5683460253217354	-0.5587694937546674	-0.2080152618170154	1.587321202290445	-0.5768019074783618	-0.21264218055935696	1.6131391267722188	-0.5032219231879591	-1.666420803972666	1.8901157207889836	1.0442467169531144	-0.22645622498266732	2.0564503367678606	-0.5793732236087313	-0.24494393711976215	1.9868177350396226	-0.4491293790478684	-0.26711072011870374	1.9112782384486184	-0.40411883943222465	-0.28152885202418715	1.8441490469825563	-0.36840451679351915	-0.1934916192533336	1.9881613659176387	-0.6113400617186167	-0.1864494548119214	1.9299319813313933	-0.6304304725332313	-0.17824192807095893	1.8650570260510553	-0.6560799429952374
45	1.5	-0.22795912324452744	1.8432673480201287	-0.5332527363064514	-0.2419020324898796	1.8404282279175392	-0.46712976047198407	-0.25251562867004484	1.7195963835244066	-0.4973090991310324	-0.23617752880919282	1.6136640673274332	-0.4413703695802904							-0.22638552464021186	1.6123964979942877	-0.4246374230687787	-0.21330202547741983	1.8459408885229118	-0.5965597174607755	-0.22683660059691058	1.7296458790616753	-0.6179865813850832	-0.21338338326655648	1.620251102176052	-0.534180899390599	-0.21910110380702325	1.5683460253217354	-0.5587694937546674	-0.20887129673880261	1.5786389424543434	-0.5784906619573413	-0.21372724005289193	1.6151079700921536	-0.5062507441789025	-0.21843292137843504	1.9967617556108614	-0.5392853482933155	-0.22513116994481933	2.064933731823208	-0.5853802592269814	-0.24266559390098777	1.9949214668579383	-0.4526616240580476	-0.26279627562857466	1.9239722810399773	-0.409837723415481	-0.28052984512189	1.853940853774305	-0.3821148118156219	-0.19161356180110656	2.0011274055304615	-0.6176693187152162	-0.1859197348640844	1.9253219686756964	-0.6383570181288453	-0.17790690262328468	1.8601021937998121	-0.6602219496901472
46	1.5333333333333334	-0.22914924422777708	1.849438284157058	-0.5416651638544393	-0.24265982293836888	1.8485410148910362	-0.46984367244692005	-0.2540226912654481	1.7215531618908446	-0.5029774743275927	-0.23617752880919282	1.6136640673274332	-0.4413703695802904							-0.22638552464021186	1.6123964979942877	-0.4246374230687787	-0.21354153601292206	1.849708995204206	-0.6013590550160651	-0.21945638373663257	1.7229000657159073	-0.5865450601165104	-0.21222308587708724	1.6020141085891266	-0.542963830886488	-0.22323285818727368	1.5625301433741554	-0.5810111427612862	-0.2129579520821474	1.5683905606567072	-0.6044774487849032	-0.21271865320034475	1.6140292185134648	-0.5117502711565511	-0.21787092737097427	1.9985357882185562	-0.5465332652152766	-0.22621054598501197	2.066194733524315	-0.5896813257860413	-0.24128053541949765	1.99565105951322	-0.45622886908461296	-0.25152795905349107	1.9224902909906683	-0.404045837382599	-0.2795308382195929	1.8637326605660534	-0.3958251068377247	-0.19257950433273582	2.0022570967763405	-0.6398181782557366	-0.18539001491624735	1.9207119560199994	-0.6462835637244593	-0.1775718771756104	1.8551473615485687	-0.6643639563850571
47	1.5666666666666667	-0.2280192639145832	1.8368563249557655	-0.5458875083043311	-0.24352506699821172	1.8363529316521616	-0.4890521384736465	-0.2555297538608513	1.7235099402572827	-0.5086458495241529	-0.23617752880919282	1.6136640673274332	-0.4413703695802904							-0.22638552464021186	1.6123964979942877	-0.4246374230687787	-0.21158843750639575	1.8382740654007341	-0.6023802639785252	-0.21699664008593797	1.7161282181966624	-0.5801089972542213	-0.2111029174882722	1.6045954994109848	-0.5453281648491466	-0.2218603553654019	1.5656195798545922	-0.5853164859075126	-0.212805389596254	1.5675760250652	-0.6053164929076772	-0.21171006634779754	1.612950466934776	-0.5172497981341997	-0.21712927684520306	1.9908520379460897	-0.551293606928016	-0.2253418426719641	2.0612819638522546	-0.594884546597857	-0.23877576671479625	1.9874740565854727	-0.4628978204177511	-0.24616972765604664	1.9094266750684201	-0.4255981327318168	-0.2604257739522736	1.8419892604098995	-0.41427072611552845	-0.19377220210285712	1.9949229093891543	-0.6425870390048053	-0.18486029496841033	1.9161019433643027	-0.6542101093200733	-0.17723685172793613	1.8501925292973254	-0.6685059630799669
48	1.6	-0.2271631372623744	1.8283438444206397	-0.5413823891766358	-0.24077914062050926	1.826810474390768	-0.46935678140724185	-0.25360846461549474	1.7175339064246562	-0.5146474977537603	-0.23617752880919282	1.6136640673274332	-0.4413703695802904							-0.22638552464021186	1.6123964979942877	-0.4246374230687787	-0.21058354130383558	1.8300478597780732	-0.5982595849405898	-0.21520700674943508	1.7092027623987411	-0.5810573488787434	-0.20998274909945716	1.607176890232843	-0.547692498811805	-0.22048785254353015	1.5687090163350288	-0.589621829053739	-0.21203317778648492	1.5683287639846653	-0.6020142304285064	-0.21070147949525037	1.6118717153560873	-0.5227493251118482	-1.6292271196965653	1.8883978847075706	0.9836721721503757	-0.2271067534663723	2.0569629416607618	-0.599881026670237	-0.24233212834034262	1.9790556220321898	-0.4559833822612883	-0.24682902881710064	1.8963916683454258	-0.4264530327282826	-0.2465805900941594	1.8241841234245446	-0.4037456966475519	-0.19339250505175845	1.9861067454742587	-0.6401530379954865	-0.18433057502057332	1.9114919307086058	-0.6621366549156873	-0.17690182628026188	1.8452376970460822	-0.6726479697748767
49	1.6333333333333333	-0.226816374715105	1.8369426312820445	-0.5423460659738715	-0.2414435138158248	1.8353319383281201	-0.473598511043314	-0.25028116890564356	1.712961981547867	-0.49989321735556763	-0.23617752880919282	1.6136640673274332	-0.4413703695802904							-0.22638552464021186	1.6123964979942877	-0.4246374230687787	-0.2121424619306043	1.8384377092487298	-0.5971025383082152	-0.21320975001727033	1.712865157332173	-0.5877751275588005	-0.20886258071064212	1.6097582810547009	-0.5500568327744636	-0.21911534972165836	1.5717984528154656	-0.5939271721999655	-0.21043915369592575	1.5665654991136975	-0.6075236351826115	-0.2096928926427032	1.6107929637773986	-0.5282488520894969	-1.6430277504339603	1.8905589402284664	1.0055292064355734	-0.2278969367360079	2.060910347163441	-0.6029106669194615	-0.2409383305554465	1.9833004466193815	-0.45267156665784725	-0.2508992183788385	1.8994414126786112	-0.41681821651876255	-0.24887119710040226	1.833716631821662	-0.356048857336051	-0.19434090782343644	1.9905573047504839	-0.635041628797927	-0.18430884599415925	1.9159542659522282	-0.6539800767248617	-0.1865731909712011	1.84952516639182	-0.6911291116227997
50	1.6666666666666667	-0.22728546956239568	1.8380980234359727	-0.5335719275709107	-0.24203428823742504	1.8325608801744144	-0.46440875144474275	-0.24695387319579237	1.7083900566710777	-0.485138936957375	-0.23617752880919282	1.6136640673274332	-0.4413703695802904							-0.22638552464021186	1.6123964979942877	-0.4246374230687787	-0.21234709326826948	1.8408280960629009	-0.5971029976165557	-0.21769647896674738	1.7186127076566784	-0.6029633671155381	-0.20774241232182708	1.612339671876559	-0.552421166737122	-0.2177428468997866	1.5748878892959022	-0.5982325153461919	-0.2086213243318369	1.5780040995179194	-0.6123871108153245	-0.20868430579015598	1.6097142121987098	-0.5337483790671456	-0.22217367076722144	1.9889004403529056	-0.5404504352156184	-0.22748841312245527	2.058864933789313	-0.5923958927144811	-0.24541204767422145	1.987138188161146	-0.4505361778346956	-0.25315645889267335	1.9089120087872349	-0.3988384393679781	-0.260738040557096	1.8402586058209847	-0.33510899330366917	-0.1949288061452321	1.991170795083066	-0.6358053737494994	-0.19113455066175472	1.9231371522834217	-0.6354626413973317	-0.19212088830635835	1.8542029452096804	-0.6619456754888589
51	1.7	-0.22517554612899707	1.8326275872976499	-0.5265084305644285	-0.24067831457645864	1.8289116544887045	-0.4608581394734083	-0.2474813087971082	1.7089817488625043	-0.4820579481783837	-0.23617752880919282	1.6136640673274332	-0.4413703695802904							-0.22638552464021186	1.6123964979942877	-0.4246374230687787	-0.2115206880981707	1.837748511898831	-0.5935339474649477	-0.22218320791622445	1.7243602579811839	-0.6181516066722758	-0.20662224393301204	1.6149210626984172	-0.5547855006997806	-0.21637034407791483	1.577977325776339	-0.6025378584924184	-0.206803494967748	1.5894426999221414	-0.6172505864480374	-0.2076757189376088	1.608635460620021	-0.5392479060447941	-0.2232389235332594	1.9819985833309581	-0.5338004960869219	-0.22987462648408652	2.0511789046803934	-0.580574683812856	-0.24435390516526473	1.9776856778012741	-0.444946417750658	-0.257498873976432	1.9002853691594674	-0.3958419056586339	-0.2638757422388122	1.8322031303220265	-0.3294178060522801	-0.19516379667934003	1.9879360091513036	-0.6265604380290962	-0.18683891126540111	1.9231651046750637	-0.6384731264538642	-0.1931982734391887	1.8692411557623718	-0.6613486590379486
